# xmcd CD database file
#
# Track frame offsets:
#	150
#	16805
#	38305
#	57176
#	59490
#	80393
#	98160
#	115764
#	137976
#	152727
#	192850
#	211322
#	215684
#
# Disc length: 3151 seconds
#
# Revision: 2
# Processed by: cddbd v1.5.2PL0 Copyright (c) Steve Scherf et al.
# Submitted via: CDex 1.51
#
DISCID=ab0c4d0d
DTITLE=Cory Morrow - Double Exposure Disc 2
DYEAR=2000
DGENRE=Country
TTITLE0=Preacher Intro
TTITLE1=The Preacher
TTITLE2=Wrapped Up In Your Love
TTITLE3=Nashville Sucks Intro
TTITLE4=Nashville Blues
TTITLE5=The Highway
TTITLE6=She Don't Know Where She's Going
TTITLE7=Running Around On Me
TTITLE8=The Man That I've Been
TTITLE9=Not Fade Away
TTITLE10=Georgia On A Fast Train
TTITLE11=Sing With Me Intro
TTITLE12=The Light On The Stage (Sing With Me)
EXTD=YEAR: 2000
EXTT0=
EXTT1=
EXTT2=
EXTT3=
EXTT4=
EXTT5=
EXTT6=
EXTT7=
EXTT8=
EXTT9=
EXTT10=
EXTT11=
EXTT12=
PLAYORDER=
